<svg xmlns="http://www.w3.org/2000/svg" viewBox="0 0 128 128" role="img" aria-label="Tá na Lista módulo">
  <defs><linearGradient id="bg" x1="0" y1="0" x2="1" y2="1"><stop offset="0" stop-color="#8B5CF6"/><stop offset="1" stop-color="#4C1D95"/></linearGradient><filter id="shadow" x="-20%" y="-20%" width="140%" height="140%"><feDropShadow dx="0" dy="6" stdDeviation="5" flood-color="#1f0b52" flood-opacity="0.35"/></filter></defs>
  <rect width="128" height="128" rx="30" fill="url(#bg)"/>
  <g filter="url(#shadow)" stroke-linecap="round" stroke-linejoin="round"><path d="M30 42c7 0 7-12 0-12h68c-7 0-7 12 0 12v44c-7 0-7 12 0 12H30c7 0 7-12 0-12z" fill="#fff"/><path d="M45 49h14v14H45zM69 49h14v14H69zM45 73h14v14H45zM70 74h5v5h-5zM79 74h6v6h-6zM70 84h16" fill="none" stroke="#4C1D95" stroke-width="4"/><path d="M25 35v-9h9M94 26h9v9M25 93v9h9M103 93v9h-9" fill="none" stroke="#22C55E" stroke-width="6"/></g>
</svg>