<svg xmlns="http://www.w3.org/2000/svg" viewBox="0 0 128 128" role="img" aria-label="Tá na Lista módulo">
  <defs><linearGradient id="bg" x1="0" y1="0" x2="1" y2="1"><stop offset="0" stop-color="#8B5CF6"/><stop offset="1" stop-color="#4C1D95"/></linearGradient><filter id="shadow" x="-20%" y="-20%" width="140%" height="140%"><feDropShadow dx="0" dy="6" stdDeviation="5" flood-color="#1f0b52" flood-opacity="0.35"/></filter></defs>
  <rect width="128" height="128" rx="30" fill="url(#bg)"/>
  <g filter="url(#shadow)" stroke-linecap="round" stroke-linejoin="round"><path d="M64 98S28 76 28 49c0-14 10-24 23-24 8 0 14 4 18 10 4-6 10-10 18-10 13 0 23 10 23 24 0 27-36 49-46 49z" fill="none" stroke="#fff" stroke-width="8"/><path d="M33 64h18l7-16 11 31 8-15h17" fill="none" stroke="#22C55E" stroke-width="6"/><circle cx="92" cy="88" r="19" fill="#fff"/><path d="M92 78v20M82 88h20" stroke="#22C55E" stroke-width="7"/></g>
</svg>